<svg id="visual" viewBox="0 0 450 900" width="450" height="900" xmlns="http://www.w3.org/2000/svg" xmlns:xlink="http://www.w3.org/1999/xlink" version="1.1"><rect width="450" height="900" fill="#8ba7a9"></rect><g><g transform="translate(223 259)"><path d="M15.2 -8.3C18.5 -3 19.3 4.3 16.3 9.6C13.3 14.9 6.7 18.3 0.7 17.9C-5.3 17.5 -10.6 13.3 -13.3 8.1C-16 2.9 -16.2 -3.3 -13.6 -8.2C-10.9 -13.1 -5.5 -16.6 0.2 -16.8C5.9 -16.9 11.9 -13.6 15.2 -8.3Z" fill="#9db9bc"></path></g><g transform="translate(340 346)"><path d="M4.6 -2.8C5.4 -1.3 5 0.7 4 2.4C3.1 4 1.5 5.4 0 5.5C-1.6 5.5 -3.2 4.1 -4 2.5C-4.7 0.9 -4.7 -0.9 -3.9 -2.3C-3.1 -3.8 -1.6 -4.9 0.2 -5C1.9 -5.1 3.8 -4.2 4.6 -2.8Z" fill="#9db9bc"></path></g><g transform="translate(288 686)"><path d="M12.3 -6.6C14.7 -2.9 14.7 2.8 12.2 6.7C9.7 10.7 4.9 12.9 0 12.9C-5 12.9 -9.9 10.8 -11.9 7.1C-13.9 3.4 -12.9 -1.7 -10.5 -5.5C-8 -9.3 -4 -11.6 0.5 -11.9C4.9 -12.2 9.8 -10.3 12.3 -6.6Z" fill="#9db9bc"></path></g><g transform="translate(418 562)"><path d="M5.4 -3.2C6.4 -1.5 6 0.9 4.9 2.8C3.8 4.8 1.9 6.2 0 6.2C-1.8 6.2 -3.7 4.7 -4.6 2.9C-5.5 1.1 -5.5 -1.1 -4.6 -2.7C-3.7 -4.4 -1.8 -5.6 0.2 -5.7C2.3 -5.8 4.5 -4.9 5.4 -3.2Z" fill="#9db9bc"></path></g><g transform="translate(446 184)"><path d="M2.1 -1.1C2.5 -0.5 2.5 0.5 2 1.1C1.6 1.8 0.8 2.3 0 2.3C-0.8 2.3 -1.6 1.8 -2 1.1C-2.5 0.5 -2.5 -0.5 -2.1 -1.1C-1.7 -1.8 -0.8 -2.1 0 -2.1C0.8 -2.1 1.7 -1.8 2.1 -1.1Z" fill="#9db9bc"></path></g><g transform="translate(5 98)"><path d="M7.1 -4.2C8.5 -1.7 8.4 1.5 7 4.2C5.5 6.9 2.8 8.9 0 8.9C-2.7 8.9 -5.4 6.8 -6.7 4.2C-8 1.5 -8.1 -1.6 -6.7 -4C-5.4 -6.4 -2.7 -8.2 0.1 -8.3C2.9 -8.4 5.7 -6.7 7.1 -4.2Z" fill="#9db9bc"></path></g><g transform="translate(244 596)"><path d="M1.3 -0.7C1.6 -0.3 1.6 0.3 1.4 0.7C1.1 1.2 0.5 1.4 0 1.3C-0.5 1.3 -0.9 1.1 -1.2 0.7C-1.4 0.3 -1.4 -0.3 -1.2 -0.7C-0.9 -1.1 -0.5 -1.3 0 -1.4C0.5 -1.4 1.1 -1.1 1.3 -0.7Z" fill="#9db9bc"></path></g><g transform="translate(388 301)"><path d="M11.7 -7.1C14.2 -2.3 14.8 3.3 12.5 8.1C10.2 12.9 5.1 16.9 0 17C-5.2 17 -10.3 13 -13 7.9C-15.6 2.9 -15.8 -3.2 -13.2 -8C-10.6 -12.8 -5.3 -16.4 -0.4 -16.2C4.6 -16 9.1 -11.9 11.7 -7.1Z" fill="#9db9bc"></path></g><g transform="translate(323 145)"><path d="M12.4 -7C14.6 -3.3 14 2.3 11.5 6.5C9 10.7 4.5 13.6 -0.2 13.8C-5 13.9 -9.9 11.3 -12 7.3C-14.1 3.3 -13.2 -1.9 -10.8 -5.8C-8.3 -9.8 -4.1 -12.3 0.5 -12.6C5.1 -12.9 10.1 -10.8 12.4 -7Z" fill="#9db9bc"></path></g><g transform="translate(82 850)"><path d="M6.4 -3.7C7.8 -1.4 7.9 1.6 6.7 3.7C5.4 5.8 2.7 7 0 7C-2.7 7 -5.4 5.8 -6.4 3.8C-7.5 1.8 -7 -1 -5.7 -3.3C-4.3 -5.6 -2.2 -7.4 0.2 -7.5C2.5 -7.6 5.1 -6 6.4 -3.7Z" fill="#9db9bc"></path></g><g transform="translate(289 583)"><path d="M14.3 -7.8C17.1 -3.5 16.8 3 13.9 7.7C11 12.3 5.5 15 0 15C-5.4 15 -10.9 12.2 -13.1 7.9C-15.4 3.6 -14.5 -2.1 -11.8 -6.3C-9.1 -10.6 -4.5 -13.3 0.6 -13.7C5.8 -14.1 11.5 -12 14.3 -7.8Z" fill="#9db9bc"></path></g><g transform="translate(256 51)"><path d="M9.8 -5.4C12.2 -1.5 13.3 3.4 11.5 7.2C9.6 10.9 4.8 13.4 0.5 13.1C-3.7 12.8 -7.5 9.6 -9.5 5.8C-11.5 2 -11.8 -2.5 -10 -6.1C-8.1 -9.8 -4.1 -12.5 -0.2 -12.4C3.7 -12.3 7.4 -9.3 9.8 -5.4Z" fill="#9db9bc"></path></g><g transform="translate(363 53)"><path d="M6.2 -3.7C7.3 -1.7 7 1.1 5.7 3.4C4.4 5.6 2.2 7.4 -0.1 7.5C-2.4 7.5 -4.8 5.8 -6 3.6C-7.3 1.3 -7.5 -1.6 -6.3 -3.6C-5.1 -5.7 -2.5 -6.9 0 -6.9C2.6 -6.9 5.1 -5.7 6.2 -3.7Z" fill="#9db9bc"></path></g><g transform="translate(160 52)"><path d="M12 -6.5C14.5 -2.4 15 3.3 12.7 7.2C10.3 11.2 5.2 13.5 -0.2 13.6C-5.5 13.7 -10.9 11.6 -13.6 7.4C-16.2 3.3 -16.1 -3 -13.3 -7.1C-10.6 -11.3 -5.3 -13.4 -0.3 -13.2C4.7 -13 9.4 -10.6 12 -6.5Z" fill="#9db9bc"></path></g><g transform="translate(445 835)"><path d="M2.1 -1.2C2.5 -0.5 2.4 0.4 2 1.1C1.5 1.8 0.8 2.2 0 2.2C-0.7 2.2 -1.5 1.7 -1.8 1.1C-2.2 0.5 -2.1 -0.4 -1.8 -1.1C-1.4 -1.7 -0.7 -2.3 0.1 -2.3C0.9 -2.4 1.7 -1.9 2.1 -1.2Z" fill="#9db9bc"></path></g><g transform="translate(155 563)"><path d="M11 -6.3C12.8 -3.2 11.8 1.5 9.5 5.2C7.2 8.9 3.6 11.4 -0.1 11.5C-3.9 11.6 -7.8 9.2 -9.6 5.8C-11.4 2.4 -11.2 -2 -9.2 -5.1C-7.3 -8.3 -3.6 -10.2 0.5 -10.5C4.6 -10.7 9.2 -9.4 11 -6.3Z" fill="#9db9bc"></path></g><g transform="translate(48 368)"><path d="M7.2 -4.1C8.8 -1.4 9.2 2 7.8 4.6C6.4 7.2 3.2 8.9 -0.1 9C-3.4 9 -6.7 7.4 -8.5 4.6C-10.3 1.8 -10.5 -2.2 -8.8 -4.9C-7.1 -7.6 -3.6 -8.9 -0.4 -8.7C2.8 -8.5 5.6 -6.7 7.2 -4.1Z" fill="#9db9bc"></path></g><g transform="translate(58 175)"><path d="M4.2 -2.4C5.1 -0.8 5.3 1.2 4.5 2.5C3.6 3.9 1.8 4.7 0.1 4.7C-1.6 4.6 -3.3 3.7 -4.3 2.2C-5.3 0.7 -5.6 -1.4 -4.8 -2.9C-4 -4.4 -2 -5.3 -0.2 -5.2C1.6 -5 3.2 -3.9 4.2 -2.4Z" fill="#9db9bc"></path></g><g transform="translate(158 771)"><path d="M3.2 -1.7C3.9 -0.7 3.9 0.8 3.3 2C2.6 3.2 1.3 4.1 0 4C-1.3 4 -2.6 3.1 -3.2 2C-3.8 0.8 -3.7 -0.6 -3 -1.6C-2.4 -2.6 -1.2 -3.2 0.1 -3.3C1.3 -3.3 2.6 -2.8 3.2 -1.7Z" fill="#9db9bc"></path></g><g transform="translate(303 434)"><path d="M2.4 -1.3C3 -0.5 3.1 0.7 2.6 1.5C2.1 2.2 1.1 2.7 0.1 2.6C-0.9 2.6 -1.9 2.1 -2.3 1.3C-2.8 0.6 -2.7 -0.5 -2.2 -1.3C-1.8 -2.1 -0.9 -2.7 0 -2.7C1 -2.7 1.9 -2.2 2.4 -1.3Z" fill="#9db9bc"></path></g><g transform="translate(96 597)"><path d="M6.7 -3.5C8.1 -1.4 8.3 1.8 7 4.1C5.7 6.3 2.9 7.7 0.1 7.7C-2.6 7.6 -5.3 6.1 -6.6 3.8C-8 1.5 -8 -1.6 -6.7 -3.6C-5.4 -5.7 -2.7 -6.7 0 -6.6C2.6 -6.6 5.3 -5.6 6.7 -3.5Z" fill="#9db9bc"></path></g><g transform="translate(157 517)"><path d="M2.6 -1.5C3.1 -0.6 3.1 0.6 2.5 1.5C2 2.3 1 2.9 0 2.9C-1 2.9 -1.9 2.3 -2.4 1.4C-2.9 0.5 -3 -0.6 -2.5 -1.5C-2 -2.4 -1 -3 0 -3C1 -3.1 2.1 -2.4 2.6 -1.5Z" fill="#9db9bc"></path></g><g transform="translate(254 474)"><path d="M5.4 -3C6.4 -1.3 6.3 1.1 5.2 2.9C4.1 4.7 2.1 5.9 0.1 5.9C-1.8 5.8 -3.6 4.5 -4.7 2.6C-5.8 0.8 -6.2 -1.5 -5.3 -3.1C-4.4 -4.6 -2.2 -5.5 0 -5.5C2.2 -5.5 4.3 -4.6 5.4 -3Z" fill="#9db9bc"></path></g><g transform="translate(46 444)"><path d="M3.4 -2.1C4.1 -0.7 4.2 0.9 3.5 2C2.8 3.2 1.4 4 -0.1 4C-1.7 4.1 -3.4 3.5 -4.1 2.3C-4.8 1.1 -4.6 -0.7 -3.7 -2.1C-2.9 -3.6 -1.4 -4.6 0 -4.6C1.4 -4.6 2.7 -3.5 3.4 -2.1Z" fill="#9db9bc"></path></g><g transform="translate(202 784)"><path d="M12.4 -6.9C14.8 -2.9 14.7 2.8 12.3 6.6C9.8 10.4 4.9 12.3 0 12.3C-4.9 12.3 -9.8 10.4 -11.7 6.9C-13.7 3.4 -12.8 -1.7 -10.3 -5.7C-7.9 -9.7 -4 -12.5 0.5 -12.8C5 -13.1 10 -10.9 12.4 -6.9Z" fill="#9db9bc"></path></g><g transform="translate(400 720)"><path d="M8.1 -4.6C9.4 -2.4 8.7 1.1 7 3.9C5.3 6.7 2.7 8.8 -0.1 8.8C-2.8 8.8 -5.6 6.8 -7 4.2C-8.3 1.6 -8.3 -1.6 -6.9 -3.9C-5.5 -6.2 -2.8 -7.6 0.3 -7.8C3.4 -8 6.8 -6.9 8.1 -4.6Z" fill="#9db9bc"></path></g></g></svg>