<svg id="visual" viewBox="0 0 900 600" width="900" height="600" xmlns="http://www.w3.org/2000/svg" xmlns:xlink="http://www.w3.org/1999/xlink" version="1.1"><g><g transform="translate(176 344)"><path d="M48.2 -16C54.3 3.3 45.6 27 28.3 39.8C10.9 52.7 -15.1 54.6 -31.2 42.9C-47.3 31.2 -53.7 5.8 -46.8 -14.4C-40 -34.6 -20 -49.8 0.5 -50C21 -50.1 42 -35.3 48.2 -16Z" fill="#1a2443"></path></g><g transform="translate(578 90)"><path d="M31.2 -11.2C35.3 2.2 29.7 17.7 18.8 25.4C8 33.2 -8.1 33.2 -19.8 25.2C-31.4 17.1 -38.8 1.1 -34.8 -12.3C-30.7 -25.7 -15.4 -36.5 -0.9 -36.2C13.6 -35.9 27.2 -24.6 31.2 -11.2Z" fill="#1a2443"></path></g><g transform="translate(434 273)"><path d="M9.4 -3.2C10.7 1 9.3 5.9 5.8 8.6C2.3 11.3 -3.3 11.8 -6.7 9.3C-10.1 6.8 -11.2 1.4 -9.7 -3C-8.3 -7.4 -4.1 -10.7 0 -10.7C4 -10.7 8.1 -7.3 9.4 -3.2Z" fill="#1a2443"></path></g><g transform="translate(861 524)"><path d="M13.9 -4.2C15.7 1.2 13.4 8.2 8.7 11.5C4 14.9 -3.1 14.5 -8.1 10.9C-13.1 7.4 -15.9 0.6 -14.2 -4.5C-12.5 -9.6 -6.2 -13.2 -0.1 -13.1C6 -13.1 12 -9.5 13.9 -4.2Z" fill="#1a2443"></path></g></g></svg>