<svg id="visual" viewBox="0 0 900 600" width="900" height="600" xmlns="http://www.w3.org/2000/svg" xmlns:xlink="http://www.w3.org/1999/xlink" version="1.1"><path d="M0 187L13.7 170C27.3 153 54.7 119 82 108C109.3 97 136.7 109 163.8 135C191 161 218 201 245.2 224C272.3 247 299.7 253 327 256C354.3 259 381.7 259 409 243C436.3 227 463.7 195 491 185C518.3 175 545.7 187 573 198C600.3 209 627.7 219 654.8 208C682 197 709 165 736.2 151C763.3 137 790.7 141 818 158C845.3 175 872.7 205 886.3 220L900 235L900 0L886.3 0C872.7 0 845.3 0 818 0C790.7 0 763.3 0 736.2 0C709 0 682 0 654.8 0C627.7 0 600.3 0 573 0C545.7 0 518.3 0 491 0C463.7 0 436.3 0 409 0C381.7 0 354.3 0 327 0C299.7 0 272.3 0 245.2 0C218 0 191 0 163.8 0C136.7 0 109.3 0 82 0C54.7 0 27.3 0 13.7 0L0 0Z" fill="#7ebff0"></path><path d="M0 337L13.7 322C27.3 307 54.7 277 82 268C109.3 259 136.7 271 163.8 287C191 303 218 323 245.2 337C272.3 351 299.7 359 327 364C354.3 369 381.7 371 409 358C436.3 345 463.7 317 491 308C518.3 299 545.7 309 573 319C600.3 329 627.7 339 654.8 319C682 299 709 249 736.2 234C763.3 219 790.7 239 818 271C845.3 303 872.7 347 886.3 369L900 391L900 233L886.3 218C872.7 203 845.3 173 818 156C790.7 139 763.3 135 736.2 149C709 163 682 195 654.8 206C627.7 217 600.3 207 573 196C545.7 185 518.3 173 491 183C463.7 193 436.3 225 409 241C381.7 257 354.3 257 327 254C299.7 251 272.3 245 245.2 222C218 199 191 159 163.8 133C136.7 107 109.3 95 82 106C54.7 117 27.3 151 13.7 168L0 185Z" fill="#5eb1ee"></path><path d="M0 385L13.7 374C27.3 363 54.7 341 82 342C109.3 343 136.7 367 163.8 387C191 407 218 423 245.2 429C272.3 435 299.7 431 327 431C354.3 431 381.7 435 409 419C436.3 403 463.7 367 491 366C518.3 365 545.7 399 573 420C600.3 441 627.7 449 654.8 430C682 411 709 365 736.2 348C763.3 331 790.7 343 818 366C845.3 389 872.7 423 886.3 440L900 457L900 389L886.3 367C872.7 345 845.3 301 818 269C790.7 237 763.3 217 736.2 232C709 247 682 297 654.8 317C627.7 337 600.3 327 573 317C545.7 307 518.3 297 491 306C463.7 315 436.3 343 409 356C381.7 369 354.3 367 327 362C299.7 357 272.3 349 245.2 335C218 321 191 301 163.8 285C136.7 269 109.3 257 82 266C54.7 275 27.3 305 13.7 320L0 335Z" fill="#36a2eb"></path><path d="M0 505L13.7 510C27.3 515 54.7 525 82 534C109.3 543 136.7 551 163.8 552C191 553 218 547 245.2 541C272.3 535 299.7 529 327 526C354.3 523 381.7 523 409 522C436.3 521 463.7 519 491 517C518.3 515 545.7 513 573 518C600.3 523 627.7 535 654.8 537C682 539 709 531 736.2 527C763.3 523 790.7 523 818 524C845.3 525 872.7 527 886.3 528L900 529L900 455L886.3 438C872.7 421 845.3 387 818 364C790.7 341 763.3 329 736.2 346C709 363 682 409 654.8 428C627.7 447 600.3 439 573 418C545.7 397 518.3 363 491 364C463.7 365 436.3 401 409 417C381.7 433 354.3 429 327 429C299.7 429 272.3 433 245.2 427C218 421 191 405 163.8 385C136.7 365 109.3 341 82 340C54.7 339 27.3 361 13.7 372L0 383Z" fill="#2e8ccd"></path><path d="M0 601L13.7 601C27.3 601 54.7 601 82 601C109.3 601 136.7 601 163.8 601C191 601 218 601 245.2 601C272.3 601 299.7 601 327 601C354.3 601 381.7 601 409 601C436.3 601 463.7 601 491 601C518.3 601 545.7 601 573 601C600.3 601 627.7 601 654.8 601C682 601 709 601 736.2 601C763.3 601 790.7 601 818 601C845.3 601 872.7 601 886.3 601L900 601L900 527L886.3 526C872.7 525 845.3 523 818 522C790.7 521 763.3 521 736.2 525C709 529 682 537 654.8 535C627.7 533 600.3 521 573 516C545.7 511 518.3 513 491 515C463.7 517 436.3 519 409 520C381.7 521 354.3 521 327 524C299.7 527 272.3 533 245.2 539C218 545 191 551 163.8 550C136.7 549 109.3 541 82 532C54.7 523 27.3 513 13.7 508L0 503Z" fill="#2677af"></path></svg>